<?xml version="1.0" standalone="no"?><svg xmlns="http://www.w3.org/2000/svg" viewBox="0 0 1440 320"><path fill="#000000" fill-opacity="1" d="M0,96L13.3,133.3C26.7,171,53,245,80,234.7C106.7,224,133,128,160,106.7C186.7,85,213,139,240,149.3C266.7,160,293,128,320,112C346.7,96,373,96,400,117.3C426.7,139,453,181,480,202.7C506.7,224,533,224,560,234.7C586.7,245,613,267,640,256C666.7,245,693,203,720,186.7C746.7,171,773,181,800,160C826.7,139,853,85,880,101.3C906.7,117,933,203,960,213.3C986.7,224,1013,160,1040,117.3C1066.7,75,1093,53,1120,53.3C1146.7,53,1173,75,1200,117.3C1226.7,160,1253,224,1280,261.3C1306.7,299,1333,309,1360,288C1386.7,267,1413,213,1427,186.7L1440,160L1440,320L1426.7,320C1413.3,320,1387,320,1360,320C1333.3,320,1307,320,1280,320C1253.3,320,1227,320,1200,320C1173.3,320,1147,320,1120,320C1093.3,320,1067,320,1040,320C1013.3,320,987,320,960,320C933.3,320,907,320,880,320C853.3,320,827,320,800,320C773.3,320,747,320,720,320C693.3,320,667,320,640,320C613.3,320,587,320,560,320C533.3,320,507,320,480,320C453.3,320,427,320,400,320C373.3,320,347,320,320,320C293.3,320,267,320,240,320C213.3,320,187,320,160,320C133.3,320,107,320,80,320C53.3,320,27,320,13,320L0,320Z"></path></svg>